<svg xmlns="http://www.w3.org/2000/svg" viewBox="0 0 48 48" width="24px" height="24px">
  <path fill="#EA4335" d="M24 9.5c3.9 0 7.1 1.6 9.3 3.7l7-7C35.6 2.6 30.1 0 24 0 14.6 0 6.4 5.8 2.5 14.2l8.3 6.4C12.3 13.1 17.6 9.5 24 9.5z"/>
  <path fill="#34A853" d="M46.5 24c0-1.5-.1-3-.4-4.5H24v9h12.7c-1.1 3.1-3.1 5.7-5.7 7.5l8.3 6.4C43.8 38.2 46.5 31.6 46.5 24z"/>
  <path fill="#4A90E2" d="M12.8 27.8c-.6-1.7-1-3.5-1-5.3s.4-3.6 1-5.3L4.5 10.8C1.6 15.5 0 20.6 0 24s1.6 8.5 4.5 13.2l8.3-6.4z"/>
  <path fill="#FBBC05" d="M24 48c6.5 0 12-2.1 16-5.7l-8.3-6.4c-2.3 1.5-5.3 2.4-8.7 2.4-6.4 0-11.7-4.2-13.6-10l-8.3 6.4C6.4 42.2 14.6 48 24 48z"/>
  <path fill="none" d="M0 0h48v48H0z"/>
</svg>